Coordinates
version=1
nRows=32
nColumns=22
inDegrees=yes

Units are S.I. units (second, meters, Newtons, ...)
If the header above contains a line with 'inDegrees', this indicates whether rotational values are in degrees (yes) or radians (no).

endheader
time	pelvis_tilt	pelvis_list	pelvis_rotation	pelvis_tx	pelvis_ty	pelvis_tz	hip_flexion_r	hip_adduction_r	hip_rotation_r	knee_angle_r	ankle_angle_r	subtalar_angle_r	hip_flexion_l	hip_adduction_l	hip_rotation_l	knee_angle_l	ankle_angle_l	subtalar_angle_l	lumbar_extension	lumbar_bending	lumbar_rotation
      1.25000000	     -4.67053309	     -3.46469294	     -1.93143658	      1.12259947	      0.94376273	     -0.28430768	      8.91213765	      4.11662059	     -4.26062601	    -13.75747627	      9.51911890	     -2.87303095	      8.72636149	     -7.29552197	    -10.61608507	    -15.86038289	     10.41006220	     -1.69991723	     -3.04289812	      1.09402058	      0.87767532
      1.26000000	     -4.63528240	     -3.49257831	     -1.99913677	      1.12179335	      0.94382404	     -0.28373583	      9.09134412	      4.18919821	     -4.19016152	    -14.03588502	      9.47691006	     -2.96378273	      8.93293925	     -7.39602262	    -10.59270373	    -16.22228014	     10.38124149	     -1.65870559	     -3.18326720	      1.10915310	      0.90810192
      1.27000000	     -4.59626917	     -3.51866662	     -2.07479171	      1.12093402	      0.94388117	     -0.28310557	      9.28386091	      4.26387053	     -4.11043807	    -14.33763673	      9.43770768	     -3.05206509	      9.16064569	     -7.50264049	    -10.57025704	    -16.62646568	     10.35595044	     -1.61065183	     -3.33482203	      1.12374501	      0.95753970
      1.28000000	     -4.55526524	     -3.54169428	     -2.15965459	      1.12001812	      0.94392972	     -0.28242713	      9.49056609	      4.33887633	     -4.02162548	    -14.66076544	      9.40224093	     -3.14137534	      9.40955079	     -7.61238523	    -10.54609988	    -17.06961972	     10.33309780	     -1.55303444	     -3.49612973	      1.14013722	      1.02685962
      1.29000000	     -4.51325793	     -3.56202621	     -2.24915274	      1.11904084	      0.94396585	     -0.28167636	      9.71421705	      4.41717336	     -3.92237549	    -15.00913831	      9.36952600	     -3.23549157	      9.67781670	     -7.72707952	    -10.51466452	    -17.54353539	     10.30990204	     -1.48165261	     -3.66466110	      1.15013636	      1.11183860
      1.30000000	     -4.46075931	     -3.57616530	     -2.34907547	      1.11799661	      0.94400467	     -0.28088691	      9.93604381	      4.49212047	     -3.81827430	    -15.36439329	      9.34122367	     -3.32186251	      9.95494459	     -7.84045972	    -10.48717330	    -18.04991273	     10.29053813	     -1.40883754	     -3.85479888	      1.16026073	      1.22234058
      1.31000000	     -4.41999038	     -3.58544879	     -2.45613516	      1.11685937	      0.94400931	     -0.28003992	     10.19164126	      4.56796252	     -3.69956534	    -15.74688772	      9.31026223	     -3.41986648	     10.26077672	     -7.95439985	    -10.44738897	    -18.57561615	     10.26823556	     -1.31459311	     -4.04211290	      1.16771758	      1.34049681
      1.32000000	     -4.36796874	     -3.59087822	     -2.56952538	      1.11563351	      0.94401863	     -0.27913591	     10.44314884	      4.64453517	     -3.58824066	    -16.13159430	      9.28620468	     -3.51159171	     10.56869876	     -8.07094555	    -10.41645709	    -19.11725641	     10.23657000	     -1.22063767	     -4.25488411	      1.17030215	      1.48431908
      1.33000000	     -4.33852409	     -3.58693972	     -2.69028174	      1.11427946	      0.94398442	     -0.27820025	     10.74017629	      4.71692232	     -3.46044963	    -16.53969444	      9.24812921	     -3.62098760	     10.91035620	     -8.17774785	    -10.36102324	    -19.65952429	     10.19704152	     -1.10086542	     -4.45738918	      1.17141191	      1.62529998
      1.34000000	     -4.28995564	     -3.57976409	     -2.81509475	      1.11283544	      0.94397454	     -0.27719634	     11.01123054	      4.78927995	     -3.36760027	    -16.92383277	      9.22093855	     -3.70807654	     11.24457217	     -8.29297929	    -10.34329335	    -20.21432656	     10.13064067	     -1.00267239	     -4.69564041	      1.16191697	      1.81023245
      1.35000000	     -4.29429359	     -3.55757191	     -2.94187073	      1.11120046	      0.94388151	     -0.27617107	     11.37045135	      4.85359854	     -3.24699930	    -17.34241031	      9.16501439	     -3.82533321	     11.64527573	     -8.38974616	    -10.27924986	    -20.75866215	     10.05933061	     -0.86896793	     -4.89590623	      1.14715855	      1.96995345
      1.36000000	     -4.30013767	     -3.53030533	     -3.06397061	      1.10944294	      0.94379639	     -0.27509518	     11.73045628	      4.91484106	     -3.16985946	    -17.74230596	      9.10662209	     -3.93657950	     12.05485426	     -8.48857701	    -10.23279777	    -21.29369579	      9.95099769	     -0.74366974	     -5.11179732	      1.12183794	      2.15220015
      1.37000000	     -4.31433361	     -3.49291423	     -3.17875118	      1.10755257	      0.94371880	     -0.27397852	     12.09963126	      4.96515845	     -3.14004589	    -18.12252690	      9.03252115	     -4.02670574	     12.48019174	     -8.58494072	    -10.20987696	    -21.81451515	      9.78574464	     -0.62785503	     -5.33613130	      1.08104133	      2.35389856
      1.38000000	     -4.39646152	     -3.44178949	     -3.27846283	      1.10546197	      0.94354928	     -0.27285544	     12.56706323	      5.00716464	     -3.10512349	    -18.52723417	      8.94374816	     -4.14386204	     12.98627442	     -8.66073546	    -10.12233008	    -22.31040359	      9.63364771	     -0.49499517	     -5.50482856	      1.03464766	      2.51057406
      1.39000000	     -4.49070943	     -3.38119907	     -3.35649597	      1.10324554	      0.94339145	     -0.27171202	     13.04342298	      5.03452154	     -3.13599636	    -18.90508139	      8.83669769	     -4.25126689	     13.51080364	     -8.73060962	    -10.03875282	    -22.78356349	      9.42882712	     -0.36425502	     -5.67506074	      0.97273682	      2.67765504
      1.40000000	     -4.61523975	     -3.30723421	     -3.40503291	      1.10089538	      0.94321608	     -0.27056119	     13.55362426	      5.04468761	     -3.20853704	    -19.26913776	      8.71142820	     -4.34774640	     14.07104255	     -8.78418937	     -9.92837687	    -23.22422344	      9.19626654	     -0.23410532	     -5.82405400	      0.89315989	      2.82177672
      1.41000000	     -4.76499164	     -3.22220499	     -3.42063993	      1.09842692	      0.94302500	     -0.26941727	     14.09070837	      5.03670966	     -3.33059582	    -19.61703165	      8.57186644	     -4.43632041	     14.66222034	     -8.81925103	     -9.77156146	    -23.63846762	      8.94683610	     -0.10097590	     -5.95391060	      0.79953589	      2.94228507
      1.42000000	     -4.94175745	     -3.13471892	     -3.39559523	      1.09586179	      0.94280467	     -0.26830959	     14.65252360	      5.01558968	     -3.50340768	    -19.94759016	      8.42939513	     -4.52672811	     15.28604951	     -8.84044244	     -9.55666126	    -24.02740566	      8.70925214	      0.03728860	     -6.05851895	      0.70540002	      3.04609978
      1.43000000	     -5.12658698	     -3.03932730	     -3.32736742	      1.09321685	      0.94257847	     -0.26723490	     15.21841944	      4.97608860	     -3.71137409	    -20.26089849	      8.27800330	     -4.60826704	     15.91981832	     -8.83590046	     -9.26682624	    -24.39623976	      8.48470625	      0.18005815	     -6.15566507	      0.59925721	      3.11492434
      1.44000000	     -5.31633221	     -2.94346821	     -3.21854318	      1.09052780	      0.94233409	     -0.26620049	     15.78002654	      4.92325859	     -3.95803080	    -20.55357347	      8.12548682	     -4.68381253	     16.55876437	     -8.80942031	     -8.88855103	    -24.75787287	      8.29718608	      0.32825184	     -6.24136478	      0.49078609	      3.15118605
      1.45000000	     -5.51374338	     -2.86240170	     -3.08494214	      1.08780560	      0.94204964	     -0.26519438	     16.34224191	      4.87619287	     -4.23522644	    -20.83100669	      7.97242828	     -4.76634805	     17.20285632	     -8.77827358	     -8.42551827	    -25.12870543	      8.18588771	      0.48926694	     -6.30844724	      0.39676627	      3.19242280
      1.46000000	     -5.68814771	     -2.78865548	     -2.91174578	      1.08506746	      0.94175717	     -0.26424666	     16.87039690	      4.82195948	     -4.53604119	    -21.09438731	      7.83454525	     -4.83967265	     17.82266880	     -8.72400837	     -7.85654662	    -25.52729028	      8.14502695	      0.65111085	     -6.39012692	      0.30916830	      3.17695464
      1.47000000	     -5.84747278	     -2.73599127	     -2.72277038	      1.08232351	      0.94143381	     -0.26334343	     17.37366286	      4.77780073	     -4.85812569	    -21.34387368	      7.69357595	     -4.91029420	     18.41800769	     -8.66641830	     -7.20685803	    -25.96914273	      8.20924792	      0.81635002	     -6.47297169	      0.24395232	      3.15975020
      1.48000000	     -5.99354062	     -2.71493228	     -2.53446885	      1.07957441	      0.94106171	     -0.26245631	     17.85924687	      4.76140904	     -5.18347227	    -21.58948117	      7.55938440	     -4.98431393	     18.99130655	     -8.62200904	     -6.49648480	    -26.48449945	      8.40436328	      0.98898496	     -6.55119861	      0.21144810	      3.15221108
      1.49000000	     -6.12282362	     -2.72551979	     -2.36347672	      1.07682019	      0.94064119	     -0.26156778	     18.32062123	      4.77614705	     -5.50533650	    -21.82367604	      7.43149816	     -5.06252300	     19.53780225	     -8.60027485	     -5.76841196	    -27.10077051	      8.71956510	      1.17413475	     -6.62701186	      0.21091199	      3.15968309
      1.50000000	     -6.23763910	     -2.76382085	     -2.22638385	      1.07406677	      0.94017345	     -0.26065089	     18.76687166	      4.82353851	     -5.80893046	    -22.05851379	      7.29596828	     -5.14920340	     20.04505512	     -8.60380476	     -5.05550063	    -27.82099288	      9.15955803	      1.38144444	     -6.69446519	      0.23294336	      3.21259985
      1.51000000	     -6.30055206	     -2.85051191	     -2.11019759	      1.07131583	      0.93970848	     -0.25973058	     19.14984847	      4.91973104	     -6.11540602	    -22.28093320	      7.17191424	     -5.21645783	     20.49021228	     -8.66468051	     -4.41950636	    -28.68811426	      9.69206316	      1.51966035	     -6.80051413	      0.30669258	      3.24393591
      1.52000000	     -6.36512316	     -2.95359261	     -2.05432954	      1.06854930	      0.93918196	     -0.25875980	     19.54289270	      5.04332720	     -6.39450610	    -22.51185633	      7.03421773	     -5.29467593	     20.89787718	     -8.75890419	     -3.88648786	    -29.67522922	     10.30573762	      1.68106151	     -6.87773897	      0.39106422	      3.34919286
      1.53000000	     -6.38362978	     -3.10052890	     -2.03588390	      1.06580609	      0.93866960	     -0.25774436	     19.87297832	      5.22489155	     -6.62879097	    -22.72242420	      6.89531486	     -5.35447448	     21.22817229	     -8.92611555	     -3.50045519	    -30.80644179	     10.95192024	      1.75371247	     -6.97827722	      0.51641557	      3.45213302
      1.54000000	     -6.38491331	     -3.26059557	     -2.06641869	      1.06305666	      0.93814120	     -0.25669596	     20.18917952	      5.43084690	     -6.82537527	    -22.93808983	      6.75304579	     -5.41169932	     21.48865921	     -9.13534745	     -3.26746349	    -32.04794091	     11.60643521	      1.78617404	     -7.07281919	      0.64831690	      3.58985755
      1.55000000	     -6.35579113	     -3.42982263	     -2.13287512	      1.06033277	      0.93762643	     -0.25563419	     20.46900313	      5.65611576	     -6.97842766	    -23.14905450	      6.61668242	     -5.46076834	     21.65486433	     -9.38395903	     -3.19383045	    -33.38043849	     12.23693702	      1.75417327	     -7.17228770	      0.78242780	      3.74229421
      1.56000000	     -6.30867378	     -3.60431026	     -2.21965547	      1.05763701	      0.93711112	     -0.25459683	     20.72646779	      5.89421374	     -7.08243065	    -23.35981802	      6.48226660	     -5.50814521	     21.73953767	     -9.65928846	     -3.24634625	    -34.78870838	     12.80185310	      1.68378219	     -7.26045101	      0.91868135	      3.88578208
